<svg width="681" height="722" viewBox="0 0 681 722" fill="none" xmlns="http://www.w3.org/2000/svg">
<path d="M56.8725 284.853C3.56856 338.157 3.56856 424.536 56.8725 477.84L244.248 665.216C297.552 718.52 383.931 718.52 437.235 665.216L624.611 477.84C677.915 424.536 677.915 338.157 624.611 284.853L437.235 97.4775C383.931 44.1736 297.552 44.1736 244.248 97.4775L56.8725 284.853ZM56.8725 284.853L56.8725 57.6841C56.8725 24.1661 97.3303 7.40715 121.029 31.106L313.278 223.281C327.674 237.751 351.004 238.046 365.769 223.945L571.897 27.4146C595.818 4.60168 635.39 21.5821 635.39 54.6571L635.685 297.995M231.402 650.745C188.065 607.408 187.622 546.205 201.502 501.17C220.033 440.852 295.854 413.019 274.222 344.949C255.913 287.363 59.235 118.076 59.235 118.076M57.094 275.329L239.671 434.134M261.303 321.693C183.931 242.771 37.5295 380.461 94.2295 515.566M632.584 117.485C632.584 117.485 424.536 291.424 406.153 349.01C384.522 417.079 460.269 444.913 478.874 505.23C492.754 550.265 490.244 611.469 446.906 654.806M627.49 280.497L435.611 439.302M586.22 515.64C642.92 380.534 496.74 246.979 419.369 325.902M261.303 674.444C358.239 630.074 396.408 597.072 398.475 555.802C399.361 538.305 388.139 499.102 338.379 499.029C300.431 499.029 277.766 526.862 277.766 558.903C277.766 612.502 413.905 673.411 418.04 675.478" stroke="url(#paint0_linear_404_33)" stroke-width="32" stroke-miterlimit="10"/>
<defs>
<linearGradient id="paint0_linear_404_33" x1="636.014" y1="16.961" x2="-14.5832" y2="48.1289" gradientUnits="userSpaceOnUse">
<stop stop-color="#DD5919"/>
<stop offset="0.479167" stop-color="#E36325"/>
<stop offset="1" stop-color="#F6C525"/>
</linearGradient>
</defs>
</svg>
