<svg width="1080" height="1080" viewBox="0 0 1080 1080" fill="none" xmlns="http://www.w3.org/2000/svg">
<rect width="1080" height="1080" rx="160" fill="url(#paint0_linear_1_66)"/>
<path d="M255.872 463.853C202.569 517.157 202.569 603.536 255.872 656.84L443.248 844.216C496.552 897.52 582.931 897.52 636.235 844.216L823.611 656.84C876.915 603.536 876.915 517.157 823.611 463.853L636.235 276.477C582.931 223.174 496.552 223.174 443.248 276.477L255.872 463.853ZM255.872 463.853L255.872 236.684C255.872 203.166 296.33 186.407 320.029 210.106L512.278 402.281C526.674 416.751 550.004 417.046 564.769 402.945L770.897 206.415C794.818 183.602 834.39 200.582 834.39 233.657L834.685 476.995M430.402 829.745C387.065 786.408 386.622 725.205 400.502 680.17C419.033 619.852 494.854 592.019 473.222 523.949C454.913 466.363 258.235 297.076 258.235 297.076M256.094 454.329L438.671 613.134M460.303 500.693C382.931 421.771 236.529 559.461 293.229 694.566M831.584 296.485C831.584 296.485 623.536 470.424 605.153 528.01C583.522 596.079 659.269 623.913 677.874 684.23C691.754 729.265 689.244 790.469 645.906 833.806M826.49 459.497L634.611 618.302M785.22 694.64C841.92 559.534 695.74 425.979 618.369 504.902M460.303 853.444C557.239 809.074 595.408 776.072 597.475 734.802C598.361 717.305 587.139 678.102 537.379 678.029C499.431 678.029 476.766 705.862 476.766 737.903C476.766 791.502 612.905 852.411 617.04 854.478" stroke="url(#paint1_linear_1_66)" stroke-width="32" stroke-miterlimit="10"/>
<line x1="540.039" y1="556.78" x2="588.868" y2="552.224" stroke="black"/>
<defs>
<linearGradient id="paint0_linear_1_66" x1="0" y1="540" x2="1080" y2="540" gradientUnits="userSpaceOnUse">
<stop stop-color="#1F1F1F"/>
<stop offset="1" stop-color="#121212"/>
</linearGradient>
<linearGradient id="paint1_linear_1_66" x1="835.014" y1="195.961" x2="184.417" y2="227.129" gradientUnits="userSpaceOnUse">
<stop stop-color="#DD5919"/>
<stop offset="0.479167" stop-color="#E36325"/>
<stop offset="1" stop-color="#F6C525"/>
</linearGradient>
</defs>
</svg>
