<svg width="1930" height="644" viewBox="0 0 1930 644" fill="none" xmlns="http://www.w3.org/2000/svg">
<path fill-rule="evenodd" clip-rule="evenodd" d="M585.776 61.0255C585.764 21.4613 538.39 1.0827 509.718 28.4271L585.776 61.0255ZM585.776 61.0413L586.022 263.418C622.798 313.963 618.386 385.123 572.787 430.723L413.17 590.339C362.686 640.823 280.873 640.823 230.389 590.339L70.773 430.723C21.592 381.542 20.3228 302.628 66.9654 251.912L66.9654 63.6198C66.9654 23.4873 115.431 3.40822 143.81 31.7868L215.383 103.332L230.389 88.3255C280.873 37.8416 362.686 37.8416 413.17 88.3255L429.631 104.786L509.718 28.4271M448.021 123.176L527.661 47.2435L527.662 47.2422C539.74 35.7238 559.776 44.2658 559.776 61.0413V61.0492V61.0571L559.831 106.451C558.523 107.555 556.661 109.129 554.319 111.121C549.411 115.294 542.391 121.305 533.921 128.669C522 139.032 507.188 152.093 491.342 166.497L448.021 123.176ZM410.808 122.732L394.786 106.71C354.455 66.38 289.104 66.38 248.774 106.71L233.771 121.713L307.575 195.489L307.588 195.502L307.6 195.515C314.871 202.823 326.658 202.975 334.121 195.848L334.129 195.841L410.808 122.732ZM196.998 121.717L125.427 50.1733L125.425 50.1716C113.428 38.1744 92.9654 46.6476 92.9654 63.6198L92.9654 107.382C94.1712 108.43 95.7898 109.841 97.7726 111.577C102.415 115.643 109.057 121.5 117.073 128.68C127.801 138.288 141.007 150.28 155.186 163.529L196.998 121.717ZM174.08 181.405L215.386 140.098L289.169 213.852C289.173 213.857 289.178 213.862 289.183 213.866C306.438 231.195 334.382 231.543 352.071 214.658L352.078 214.651M352.078 214.651L429.198 141.122L472.19 184.115C471.776 184.501 471.361 184.887 470.947 185.274C447.703 206.966 423.78 230.369 404.608 251.551C395.027 262.136 386.483 272.329 379.762 281.594C373.208 290.63 367.722 299.671 365.117 307.833L365.114 307.841L365.111 307.849C359.68 324.94 360.263 340.104 364.838 353.906C369.285 367.324 377.294 378.786 385.503 388.963C389.062 393.374 392.83 397.747 396.469 401.97C397.039 402.632 397.607 403.29 398.17 403.944C402.391 408.851 406.435 413.61 410.2 418.489C417.73 428.247 423.711 437.947 427.026 448.694C437.944 484.125 435.453 530.658 403.024 563.087L403.339 563.401L394.786 571.954C393.182 573.558 391.539 575.097 389.86 576.573C382.331 573.022 364.349 564.363 344.796 552.695C347.087 550.904 349.269 549.112 351.344 547.318C371.822 529.607 382.835 510.726 383.944 488.593C384.45 478.567 381.616 463.414 371.977 450.442C361.833 436.791 344.913 426.617 319.787 426.58H319.777H319.767C279.635 426.58 255.134 456.753 255.134 490.584C255.134 507.245 265.44 522.222 276.959 534.147C283.131 540.536 290.271 546.683 297.816 552.47C285.103 559.693 270.08 567.301 252.453 575.46C251.205 574.327 249.979 573.159 248.774 571.954L237.139 560.32L237.831 559.628C205.634 527.43 204.541 481.089 215.592 445.233L215.595 445.222C218.895 434.48 224.866 424.784 232.392 415.028C236.154 410.15 240.197 405.392 244.418 400.486C244.99 399.822 245.567 399.153 246.147 398.48C249.778 394.268 253.537 389.906 257.088 385.506C265.3 375.331 273.315 363.869 277.768 350.452C282.349 336.649 282.937 321.483 277.505 304.39L277.504 304.388C274.943 296.332 269.695 287.41 263.402 278.461C256.966 269.307 248.817 259.269 239.696 248.865C221.446 228.048 198.743 205.134 176.712 183.933C175.834 183.088 174.956 182.245 174.08 181.405M136.79 181.925C123.024 169.071 110.195 157.423 99.7267 148.047C97.3442 145.913 95.0848 143.898 92.9654 142.014L92.9654 225.749L136.79 181.925ZM85.1333 270.582C49.1318 310.843 50.1999 372.518 88.3376 411.509C85.2228 370.095 99.8909 331.4 122.549 303.126L85.1333 270.582ZM142.181 320.202C116.994 352.103 104.293 399.098 122.626 445.806L184.832 508.012C181.169 483.046 184.404 458.149 190.745 437.575C195.338 422.631 203.358 410.098 211.805 399.148C214.668 395.436 217.631 391.843 220.564 388.379L142.181 320.202ZM237.37 368.537L160.367 301.561C172.885 291.284 186.453 284.739 199.394 282.6C215.68 279.908 231.496 284.02 244.826 297.617L244.928 297.517C249.093 303.844 251.617 308.778 252.726 312.264M211.052 255.863C205.772 255.699 200.454 256.072 195.154 256.948C175.622 260.177 156.737 270.117 140.526 284.303L103.439 252.045L155.691 199.794C156.687 200.748 157.685 201.706 158.684 202.667C176.869 220.168 195.265 238.609 211.052 255.863ZM237.37 368.537C244.716 359.366 250.191 351.002 253.092 342.262C255.931 333.706 256.507 324.165 252.727 312.266M277.623 592.31C304.973 605.249 336.826 605.495 364.346 593.046C363.425 592.581 362.488 592.105 361.541 591.619C350.403 585.912 335.919 578.039 321.334 568.785C308.827 576.448 294.294 584.227 277.623 592.31ZM321.492 537.619C326.287 534.237 330.557 530.921 334.336 527.652C351.2 513.068 357.324 500.316 357.977 487.293L357.977 487.285C358.224 482.406 356.655 473.414 351.108 465.949C346.066 459.164 337.016 452.61 319.767 452.58C295.247 452.58 281.134 469.826 281.134 490.584C281.134 496.753 285.324 505.384 295.66 516.083C302.739 523.412 311.718 530.7 321.492 537.619ZM457.202 509.538L519.511 447.229C538.331 400.834 526.349 354.761 501.863 323.419L420.856 390.462C424.167 394.348 427.538 398.4 430.784 402.605C439.234 413.556 447.262 426.088 451.871 441.031L451.872 441.034C458.092 461.217 460.845 485.327 457.202 509.538ZM404.1 370.581L483.689 304.71C470.918 294.236 456.966 287.652 443.647 285.667C427.345 283.236 411.441 287.534 398.041 301.202L397.874 301.038C393.54 307.428 390.969 312.344 389.885 315.74C386.109 327.634 386.683 337.173 389.517 345.726C392.264 354.013 397.325 361.962 404.1 370.581ZM433.081 259.054C437.866 258.928 442.68 259.235 447.481 259.951C467.761 262.975 487.372 273.173 504.021 287.883L543.382 255.307L490.586 202.511C489.953 203.1 489.32 203.691 488.686 204.282C469.342 222.334 449.788 241.341 433.081 259.054ZM509.748 184.903L559.988 235.143L559.873 140.593C557.14 142.947 554.164 145.522 550.979 148.29C539.39 158.365 525.069 170.992 509.748 184.903ZM561.442 274.11L521.894 306.841C543.717 334.538 557.563 372.079 554.292 412.448L554.402 412.338C592.23 374.51 594.577 314.669 561.442 274.11ZM1273.08 358V323.26H1254.94V95.1337C1254.94 61.1657 1218.27 58.8497 1195.11 68.4997V103.626C1195.11 103.626 1213.25 103.24 1213.25 115.978V358H1273.08ZM792.042 288.52C792.042 334.068 889.314 335.226 889.314 288.52V200.126H871.172V165H931.002V295.468C931.002 344.49 891.63 361.86 840.292 361.86C788.182 361.86 750.354 344.49 750.354 295.468V211.32C750.354 211.32 750.74 200.126 732.212 200.126V165C756.144 154.578 792.042 161.14 792.042 191.634V288.52ZM968.121 262.272C968.121 209.39 1005.95 162.298 1067.32 162.298C1121.75 162.298 1166.91 203.6 1166.53 262.272C1165.75 391.196 968.121 399.302 968.121 262.272ZM1010.58 262.658C1010.58 293.152 1030.27 323.646 1067.32 323.646C1106.7 323.646 1124.84 293.152 1124.84 262.272C1124.84 230.62 1104.38 200.126 1067.32 200.126C1028.72 200.126 1010.58 230.62 1010.58 262.658ZM1383.53 358H1323.7V115.978C1323.7 103.24 1305.56 103.626 1305.56 103.626V68.4997C1328.72 58.8497 1365.39 61.1657 1365.39 95.1337V232.936H1395.88L1456.1 165H1495.86V200.126H1476.56L1426.76 257.254L1477.71 323.26H1495.86V358H1456.48L1396.27 280.8H1365.39V316.312H1383.53V358ZM1650.61 162.298C1542.14 162.298 1556.42 276.94 1556.42 276.94C1556.42 276.94 1557.97 361.86 1639.41 361.86C1670.68 361.86 1702.33 350.28 1726.65 334.068L1706.96 303.574C1705.38 304.529 1703.83 305.482 1702.31 306.423C1687.8 315.36 1674.98 323.26 1649.83 323.26C1622.04 323.26 1598.5 304.346 1597.72 276.554H1732.82C1732.82 276.554 1751.74 162.298 1650.61 162.298ZM1596.95 246.06C1596.95 246.06 1602.74 200.512 1652.15 200.512C1700.79 200.512 1693.84 246.06 1693.84 246.06H1596.95ZM1767.7 200.126V165C1791.63 156.894 1818.65 157.666 1822.13 192.792C1822.13 192.792 1840.27 162.298 1887.36 162.298C1887.36 162.298 1896.24 161.912 1905.12 165V200.126C1905.12 200.126 1825.99 193.564 1825.99 257.64V323.26H1844.52V358H1784.3V211.706C1783.91 206.688 1781.6 200.126 1767.7 200.126ZM1542.91 439.024C1542.59 442.352 1541.67 445.296 1540.13 447.856C1538.59 450.352 1536.19 452.304 1532.93 453.712C1529.67 455.12 1525.28 455.824 1519.78 455.824C1514.15 455.824 1509.73 455.152 1506.53 453.808C1503.39 452.4 1501.15 450.448 1499.81 447.952C1498.47 445.456 1497.67 442.48 1497.41 439.024H1510.18C1510.5 442.544 1511.39 444.88 1512.87 446.032C1514.34 447.184 1516.74 447.76 1520.07 447.76C1522.82 447.76 1525.06 447.152 1526.79 445.936C1528.58 444.656 1529.63 442.352 1529.95 439.024H1542.91ZM1506.53 482.32C1506.53 483.408 1506.47 484.752 1506.34 486.352C1506.27 487.952 1506.18 489.584 1506.05 491.248C1505.99 492.912 1505.89 494.384 1505.76 495.664C1505.63 496.944 1505.54 497.84 1505.47 498.352L1529.67 461.584H1546.85V514H1533.03V493.072C1533.03 491.344 1533.09 489.456 1533.22 487.408C1533.35 485.296 1533.47 483.344 1533.6 481.552C1533.79 479.696 1533.92 478.288 1533.99 477.328L1509.89 514H1492.71V461.584H1506.53V482.32ZM749.696 445.456H736.64V514H754.112L785.888 461.488H786.272C786.208 461.936 786.112 462.896 785.984 464.368C785.92 465.776 785.824 467.44 785.696 469.36C785.632 471.28 785.568 473.296 785.504 475.408C785.44 477.456 785.408 479.344 785.408 481.072V514H798.368V445.456H780.992L749.312 497.488H749.024C749.088 496.976 749.152 496.048 749.216 494.704C749.28 493.296 749.344 491.664 749.408 489.808C749.472 487.888 749.536 485.936 749.6 483.952C749.664 481.968 749.696 480.176 749.696 478.576V445.456ZM828.823 481.744V461.584H814.519V514H828.823V492.4H848.791V514H863.095V461.584H848.791V481.744H828.823ZM921.474 472.336H904.29V514H889.986V472.336H872.802V461.584H921.474V472.336ZM964.287 463.408C960.831 461.552 956.671 460.624 951.807 460.624C946.879 460.624 942.559 461.648 938.847 463.696C935.135 465.744 932.223 468.816 930.111 472.912C928.063 476.944 927.039 482.032 927.039 488.176C927.039 494.192 928.191 499.184 930.495 503.152C932.799 507.12 935.967 510.096 939.999 512.08C944.031 514 948.671 514.96 953.919 514.96C957.951 514.96 961.375 514.64 964.191 514C967.071 513.424 969.791 512.496 972.351 511.216V500.176C969.407 501.584 966.559 502.64 963.807 503.344C961.055 503.984 957.983 504.304 954.591 504.304C950.559 504.304 947.391 503.152 945.087 500.848C942.847 498.544 941.663 495.376 941.535 491.344H975.327V484.432C975.327 479.312 974.367 474.992 972.447 471.472C970.527 467.952 967.807 465.264 964.287 463.408ZM944.991 473.488C946.847 471.696 949.151 470.8 951.903 470.8C954.143 470.8 955.999 471.28 957.471 472.24C958.943 473.2 960.031 474.512 960.735 476.176C961.503 477.84 961.887 479.728 961.887 481.84H941.823C942.143 478.064 943.199 475.28 944.991 473.488ZM1016.11 460.624C1022 460.624 1026.77 462.928 1030.41 467.536C1034.06 472.08 1035.89 478.8 1035.89 487.696C1035.89 493.648 1035.02 498.672 1033.29 502.768C1031.57 506.8 1029.2 509.84 1026.19 511.888C1023.18 513.936 1019.69 514.96 1015.73 514.96C1013.23 514.96 1011.05 514.64 1009.2 514C1007.41 513.36 1005.87 512.528 1004.59 511.504C1003.31 510.48 1002.19 509.392 1001.23 508.24H1000.46C1000.72 509.456 1000.91 510.736 1001.04 512.08C1001.17 513.36 1001.23 514.64 1001.23 515.92V537.04H986.926V461.584H998.542L1000.56 468.4H1001.23C1002.19 466.992 1003.34 465.712 1004.69 464.56C1006.03 463.344 1007.63 462.384 1009.49 461.68C1011.41 460.976 1013.61 460.624 1016.11 460.624ZM1011.5 472.048C1009.01 472.048 1007.02 472.56 1005.55 473.584C1004.08 474.608 1002.99 476.176 1002.29 478.288C1001.65 480.336 1001.29 482.928 1001.23 486.064V487.6C1001.23 490.992 1001.55 493.872 1002.19 496.24C1002.83 498.544 1003.92 500.304 1005.45 501.52C1006.99 502.736 1009.07 503.344 1011.69 503.344C1013.87 503.344 1015.66 502.736 1017.07 501.52C1018.48 500.304 1019.53 498.512 1020.24 496.144C1020.94 493.776 1021.29 490.896 1021.29 487.504C1021.29 482.384 1020.49 478.544 1018.89 475.984C1017.36 473.36 1014.89 472.048 1011.5 472.048ZM1085.31 465.136C1081.6 462.064 1076.22 460.528 1069.18 460.528C1065.47 460.528 1061.88 460.944 1058.43 461.776C1055.04 462.608 1051.93 463.76 1049.12 465.232L1053.82 474.928C1056.25 473.84 1058.68 472.944 1061.12 472.24C1063.55 471.472 1066.04 471.088 1068.6 471.088C1071.16 471.088 1073.15 471.728 1074.56 473.008C1076.03 474.288 1076.76 476.304 1076.76 479.056V481.36L1067.64 481.648C1059.84 481.904 1053.98 483.376 1050.08 486.064C1046.17 488.688 1044.22 492.784 1044.22 498.352C1044.22 502.128 1044.92 505.264 1046.33 507.76C1047.74 510.192 1049.66 512.016 1052.09 513.232C1054.59 514.384 1057.37 514.96 1060.44 514.96C1063.39 514.96 1065.85 514.672 1067.84 514.096C1069.88 513.584 1071.68 512.72 1073.21 511.504C1074.81 510.288 1076.35 508.752 1077.82 506.896H1078.2L1080.99 514H1090.97V479.056C1090.97 472.784 1089.08 468.144 1085.31 465.136ZM1061.6 492.4C1063.39 490.864 1066.59 490.032 1071.2 489.904L1076.76 489.712V494.032C1076.76 497.36 1075.71 499.952 1073.6 501.808C1071.48 503.6 1068.89 504.496 1065.82 504.496C1063.77 504.496 1062.11 504.048 1060.83 503.152C1059.55 502.192 1058.91 500.624 1058.91 498.448C1058.91 495.952 1059.8 493.936 1061.6 492.4ZM1139.98 461.584H1155.73L1134.99 486.736L1157.55 514H1141.33L1119.92 487.408V514H1105.61V461.584H1119.92V487.024L1139.98 461.584ZM1191.26 472.336H1208.44V461.584H1159.77V472.336H1176.95V514H1191.26V472.336ZM1231.94 482.32C1231.94 483.408 1231.87 484.752 1231.75 486.352C1231.68 487.952 1231.59 489.584 1231.46 491.248C1231.39 492.912 1231.3 494.384 1231.17 495.664C1231.04 496.944 1230.95 497.84 1230.88 498.352L1255.07 461.584H1272.26V514H1258.43V493.072C1258.43 491.344 1258.5 489.456 1258.63 487.408C1258.75 485.296 1258.88 483.344 1259.01 481.552C1259.2 479.696 1259.33 478.288 1259.39 477.328L1235.3 514H1218.11V461.584H1231.94V482.32ZM1330.98 482.512C1332.77 480.528 1333.67 478.128 1333.67 475.312C1333.67 471.856 1332.71 469.136 1330.79 467.152C1328.93 465.168 1326.37 463.76 1323.11 462.928C1319.91 462.032 1316.26 461.584 1312.17 461.584H1287.21V514H1312.17C1316.33 514 1319.85 513.616 1322.73 512.848C1325.67 512.08 1328.07 510.992 1329.93 509.584C1331.78 508.176 1333.13 506.512 1333.96 504.592C1334.85 502.672 1335.3 500.592 1335.3 498.352C1335.3 495.152 1334.18 492.528 1331.94 490.48C1329.77 488.432 1326.85 487.184 1323.21 486.736V486.352C1326.66 485.776 1329.25 484.496 1330.98 482.512ZM1318.12 493.168C1319.72 494.064 1320.52 495.536 1320.52 497.584C1320.52 499.952 1319.62 501.648 1317.83 502.672C1316.1 503.632 1313.89 504.112 1311.21 504.112H1301.51V491.728H1310.92C1314.12 491.728 1316.52 492.208 1318.12 493.168ZM1317.25 472.816C1318.53 473.584 1319.17 474.8 1319.17 476.464C1319.17 478.448 1318.37 479.888 1316.77 480.784C1315.24 481.616 1312.97 482.032 1309.96 482.032H1301.51V471.664H1311.59C1314.09 471.664 1315.97 472.048 1317.25 472.816ZM1361.89 481.744H1381.85V461.584H1396.16V514H1381.85V492.4H1361.89V514H1347.58V461.584H1361.89V481.744ZM1411.14 461.584V514H1432.84C1438.34 514 1442.76 513.328 1446.09 511.984C1449.48 510.576 1451.94 508.624 1453.48 506.128C1455.08 503.632 1455.88 500.688 1455.88 497.296C1455.88 493.84 1455.02 490.96 1453.29 488.656C1451.62 486.352 1449.06 484.656 1445.61 483.568C1442.15 482.416 1437.74 481.84 1432.36 481.84H1425.45V461.584H1411.14ZM1438.89 502.576C1437.16 503.6 1434.89 504.112 1432.07 504.112H1425.45V491.728H1431.88C1435.08 491.728 1437.48 492.176 1439.08 493.072C1440.74 493.968 1441.58 495.44 1441.58 497.488C1441.58 499.856 1440.68 501.552 1438.89 502.576ZM1463.46 461.584V514H1477.77V461.584H1463.46ZM1621.99 472.336V461.584H1585.8V514H1600.1V472.336H1621.99ZM1678.32 487.696C1678.32 492.048 1677.71 495.92 1676.5 499.312C1675.35 502.704 1673.65 505.584 1671.41 507.952C1669.23 510.256 1666.58 512.016 1663.44 513.232C1660.31 514.384 1656.75 514.96 1652.79 514.96C1649.14 514.96 1645.75 514.384 1642.61 513.232C1639.54 512.016 1636.88 510.256 1634.64 507.952C1632.4 505.584 1630.64 502.704 1629.36 499.312C1628.15 495.92 1627.54 492.048 1627.54 487.696C1627.54 481.872 1628.56 476.976 1630.61 473.008C1632.66 468.976 1635.6 465.904 1639.44 463.792C1643.28 461.68 1647.83 460.624 1653.07 460.624C1658 460.624 1662.35 461.68 1666.13 463.792C1669.91 465.904 1672.88 468.976 1675.06 473.008C1677.23 476.976 1678.32 481.872 1678.32 487.696ZM1642.13 487.696C1642.13 491.152 1642.48 494.064 1643.19 496.432C1643.95 498.736 1645.14 500.496 1646.74 501.712C1648.34 502.864 1650.42 503.44 1652.98 503.44C1655.54 503.44 1657.59 502.864 1659.12 501.712C1660.72 500.496 1661.87 498.736 1662.58 496.432C1663.35 494.064 1663.73 491.152 1663.73 487.696C1663.73 484.24 1663.35 481.36 1662.58 479.056C1661.87 476.752 1660.72 475.024 1659.12 473.872C1657.52 472.72 1655.44 472.144 1652.88 472.144C1649.11 472.144 1646.35 473.456 1644.63 476.08C1642.96 478.64 1642.13 482.512 1642.13 487.696ZM1733.63 467.536C1729.98 462.928 1725.22 460.624 1719.33 460.624C1716.83 460.624 1714.62 460.976 1712.7 461.68C1710.85 462.384 1709.25 463.344 1707.9 464.56C1706.56 465.712 1705.41 466.992 1704.45 468.4H1703.78L1701.76 461.584H1690.14V537.04H1704.45V515.92C1704.45 514.64 1704.38 513.36 1704.26 512.08C1704.13 510.736 1703.94 509.456 1703.68 508.24H1704.45C1705.41 509.392 1706.53 510.48 1707.81 511.504C1709.09 512.528 1710.62 513.36 1712.42 514C1714.27 514.64 1716.45 514.96 1718.94 514.96C1722.91 514.96 1726.4 513.936 1729.41 511.888C1732.42 509.84 1734.78 506.8 1736.51 502.768C1738.24 498.672 1739.1 493.648 1739.1 487.696C1739.1 478.8 1737.28 472.08 1733.63 467.536ZM1708.77 473.584C1710.24 472.56 1712.22 472.048 1714.72 472.048C1718.11 472.048 1720.58 473.36 1722.11 475.984C1723.71 478.544 1724.51 482.384 1724.51 487.504C1724.51 490.896 1724.16 493.776 1723.46 496.144C1722.75 498.512 1721.7 500.304 1720.29 501.52C1718.88 502.736 1717.09 503.344 1714.91 503.344C1712.29 503.344 1710.21 502.736 1708.67 501.52C1707.14 500.304 1706.05 498.544 1705.41 496.24C1704.77 493.872 1704.45 490.992 1704.45 487.6V486.064C1704.51 482.928 1704.86 480.336 1705.5 478.288C1706.21 476.176 1707.3 474.608 1708.77 473.584ZM1798.51 487.696C1798.51 492.048 1797.9 495.92 1796.69 499.312C1795.53 502.704 1793.84 505.584 1791.6 507.952C1789.42 510.256 1786.77 512.016 1783.63 513.232C1780.49 514.384 1776.94 514.96 1772.97 514.96C1769.33 514.96 1765.93 514.384 1762.8 513.232C1759.73 512.016 1757.07 510.256 1754.83 507.952C1752.59 505.584 1750.83 502.704 1749.55 499.312C1748.33 495.92 1747.73 492.048 1747.73 487.696C1747.73 481.872 1748.75 476.976 1750.8 473.008C1752.85 468.976 1755.79 465.904 1759.63 463.792C1763.47 461.68 1768.01 460.624 1773.26 460.624C1778.19 460.624 1782.54 461.68 1786.32 463.792C1790.09 465.904 1793.07 468.976 1795.25 473.008C1797.42 476.976 1798.51 481.872 1798.51 487.696ZM1762.32 487.696C1762.32 491.152 1762.67 494.064 1763.37 496.432C1764.14 498.736 1765.33 500.496 1766.93 501.712C1768.53 502.864 1770.61 503.44 1773.17 503.44C1775.73 503.44 1777.77 502.864 1779.31 501.712C1780.91 500.496 1782.06 498.736 1782.77 496.432C1783.53 494.064 1783.92 491.152 1783.92 487.696C1783.92 484.24 1783.53 481.36 1782.77 479.056C1782.06 476.752 1780.91 475.024 1779.31 473.872C1777.71 472.72 1775.63 472.144 1773.07 472.144C1769.29 472.144 1766.54 473.456 1764.81 476.08C1763.15 478.64 1762.32 482.512 1762.32 487.696ZM1857.47 503.536V461.584H1820.41C1819.96 466.768 1819.26 471.92 1818.3 477.04C1817.34 482.16 1816.06 486.992 1814.46 491.536C1812.86 496.016 1810.91 500.016 1808.6 503.536H1804.19V532.816H1817.05V514H1852.28V532.816H1865.15V503.536H1857.47ZM1830.49 483.568C1831.26 479.92 1831.9 476.176 1832.41 472.336H1843.16V503.536H1823.58C1825.18 500.464 1826.52 497.264 1827.61 493.936C1828.76 490.608 1829.72 487.152 1830.49 483.568Z" fill="#F39200"/>
</svg>
